{
  "accessors": [
    {
      "bufferView": 2,
      "componentType": 5126,
      "count": 9841,
      "max": [
        13.656059265136719,
        -0.6770780086517334,
        78.25887298583984
      ],
      "min": [
        -13.569701194763184,
        -15.394743919372559,
        45.47071838378906
      ],
      "type": "VEC3"
    },
    {
      "bufferView": 2,
      "byteOffset": 118092,
      "componentType": 5126,
      "count": 9841,
      "max": [
        0.9994362592697144,
        0.9999616146087646,
        0.9999295473098755
      ],
      "min": [
        -0.9995596408843994,
        -0.9998179078102112,
        -0.9999978542327881
      ],
      "type": "VEC3"
    },
    {
      "bufferView": 3,
      "componentType": 5126,
      "count": 9841,
      "max": [
        0.9999890327453613,
        0.9998324513435364,
        0.9999870657920837,
        1.0
      ],
      "min": [
        -0.9999722242355347,
        -0.9995628595352173,
        -0.9999959468841553,
        -1.0
      ],
      "type": "VEC4"
    },
    {
      "bufferView": 1,
      "componentType": 5126,
      "count": 9841,
      "max": [
        0.9820650219917297,
        0.9900000095367432
      ],
      "min": [
        0.009999999776482582,
        0.009999999776482582
      ],
      "type": "VEC2"
    },
    {
      "bufferView": 0,
      "componentType": 5125,
      "count": 50250,
      "type": "SCALAR"
    },
    {
      "bufferView": 2,
      "byteOffset": 236184,
      "componentType": 5126,
      "count": 1028,
      "max": [
        3.9553050994873047,
        -1.5739550590515137,
        65.97500610351563
      ],
      "min": [
        -3.8709568977355957,
        -9.531878471374512,
        52.07778549194336
      ],
      "type": "VEC3"
    },
    {
      "bufferView": 2,
      "byteOffset": 248520,
      "componentType": 5126,
      "count": 1028,
      "max": [
        0.9984560012817383,
        0.9999668598175049,
        0.765451192855835
      ],
      "min": [
        -0.9995646476745605,
        -0.9999222159385681,
        -0.9606239795684814
      ],
      "type": "VEC3"
    },
    {
      "bufferView": 3,
      "byteOffset": 157456,
      "componentType": 5126,
      "count": 1028,
      "max": [
        0.9998617172241211,
        0.9951648116111755,
        0.9999279975891113,
        1.0
      ],
      "min": [
        -0.9999794960021973,
        -0.9612683653831482,
        -0.999972403049469,
        1.0
      ],
      "type": "VEC4"
    },
    {
      "bufferView": 1,
      "byteOffset": 78728,
      "componentType": 5126,
      "count": 1028,
      "max": [
        0.9582589864730835,
        0.9542919993400574
      ],
      "min": [
        0.14886599779129028,
        0.05562800168991089
      ],
      "type": "VEC2"
    },
    {
      "bufferView": 0,
      "byteOffset": 201000,
      "componentType": 5125,
      "count": 5214,
      "type": "SCALAR"
    }
  ],
  "asset": {
    "extras": {
      "author": "EstebanKaio (https://sketchfab.com/EstebanKaio)",
      "license": "CC-BY-4.0 (http://creativecommons.org/licenses/by/4.0/)",
      "source": "https://sketchfab.com/3d-models/minos-f31f22f2b7f745c3a8f67c5adfe0bd0a",
      "title": "Minos"
    },
    "generator": "Sketchfab-12.63.0",
    "version": "2.0"
  },
  "bufferViews": [
    {
      "buffer": 0,
      "byteLength": 221856,
      "name": "floatBufferViews",
      "target": 34963
    },
    {
      "buffer": 0,
      "byteLength": 86952,
      "byteOffset": 221856,
      "byteStride": 8,
      "name": "floatBufferViews",
      "target": 34962
    },
    {
      "buffer": 0,
      "byteLength": 260856,
      "byteOffset": 308808,
      "byteStride": 12,
      "name": "floatBufferViews",
      "target": 34962
    },
    {
      "buffer": 0,
      "byteLength": 173904,
      "byteOffset": 569664,
      "byteStride": 16,
      "name": "floatBufferViews",
      "target": 34962
    }
  ],
  "buffers": [
    {
      "byteLength": 743568,
      "uri": "scene.bin"
    }
  ],
  "images": [
    {
      "uri": "textures/Default_baseColor.png"
    },
    {
      "uri": "textures/Default_metallicRoughness.png"
    },
    {
      "uri": "textures/Default_normal.png"
    }
  ],
  "materials": [
    {
      "doubleSided": true,
      "name": "Default",
      "normalTexture": {
        "index": 2
      },
      "occlusionTexture": {
        "index": 1
      },
      "pbrMetallicRoughness": {
        "baseColorTexture": {
          "index": 0
        },
        "metallicRoughnessTexture": {
          "index": 1
        },
        "roughnessFactor": 0.6
      }
    }
  ],
  "meshes": [
    {
      "name": "Object_0",
      "primitives": [
        {
          "attributes": {
            "NORMAL": 1,
            "POSITION": 0,
            "TANGENT": 2,
            "TEXCOORD_0": 3
          },
          "indices": 4,
          "material": 0,
          "mode": 4
        }
      ]
    },
    {
      "name": "Object_1",
      "primitives": [
        {
          "attributes": {
            "NORMAL": 6,
            "POSITION": 5,
            "TANGENT": 7,
            "TEXCOORD_0": 8
          },
          "indices": 9,
          "material": 0,
          "mode": 4
        }
      ]
    }
  ],
  "nodes": [
    {
      "children": [
        1
      ],
      "matrix": [
        1.0,
        0.0,
        0.0,
        0.0,
        0.0,
        2.220446049250313e-16,
        -1.0,
        0.0,
        0.0,
        1.0,
        2.220446049250313e-16,
        0.0,
        0.0,
        0.0,
        0.0,
        1.0
      ],
      "name": "Sketchfab_model"
    },
    {
      "children": [
        2,
        3
      ],
      "name": "Minos.obj.cleaner.materialmerger.gles"
    },
    {
      "mesh": 0,
      "name": "Object_2"
    },
    {
      "mesh": 1,
      "name": "Object_3"
    }
  ],
  "samplers": [
    {
      "magFilter": 9729,
      "minFilter": 9987,
      "wrapS": 10497,
      "wrapT": 10497
    }
  ],
  "scene": 0,
  "scenes": [
    {
      "name": "Sketchfab_Scene",
      "nodes": [
        0
      ]
    }
  ],
  "textures": [
    {
      "sampler": 0,
      "source": 0
    },
    {
      "sampler": 0,
      "source": 1
    },
    {
      "sampler": 0,
      "source": 2
    }
  ]
}
